<svg width="426" height="190" viewBox="0 0 426 190" fill="none" xmlns="http://www.w3.org/2000/svg">
<path d="M212.753 1.5C232.236 1.5 248.918 13.4786 255.843 30.4668L256.203 31.3506L255.554 32.0518C243.966 44.56 225.906 50.2288 209.076 50.3496C192.58 50.468 176.712 45.2457 169.139 35.2393L168.784 34.7598L168.338 34.1387L168.578 33.4131C174.701 14.8786 192.162 1.50002 212.753 1.5Z" fill="#C7E2FF" stroke="white" stroke-width="3"/>
<path d="M196.919 76.0252C196.906 81.0684 196.803 85.0341 195.94 89.2957L195.585 91.0497L193.92 90.3934C177.639 83.9797 165.382 65.806 166.365 46.6346L166.584 42.3582L169.081 45.8368C176.242 55.8129 184.076 64.1154 196.274 72.5604L196.92 73.0077V73.7938L196.919 76.0252Z" fill="#C7E2FF" stroke="white" stroke-width="3"/>
<path d="M258.637 40.3484V40.3524C258.637 40.355 258.638 40.3591 258.639 40.3641C258.64 40.3739 258.641 40.3884 258.644 40.407C258.648 40.4449 258.655 40.501 258.664 40.5721C258.681 40.7142 258.705 40.9192 258.734 41.1727C258.793 41.6803 258.872 42.3846 258.95 43.1697C259.105 44.72 259.267 46.6569 259.267 48.0135C259.267 67.7274 247.003 84.5736 229.693 91.3455L228.485 91.8182L227.844 90.6902C226.715 88.7071 226.349 86.2733 226.288 83.8084C226.227 81.3299 226.474 78.6263 226.71 76.034L226.742 75.6785L226.932 75.3748L227.247 74.9031C228.14 73.6212 230.114 71.1043 232.559 68.0594C235.389 64.5334 238.937 60.1918 242.408 55.9734C245.88 51.7544 249.277 47.655 251.806 44.6102C253.07 43.0877 254.117 41.8283 254.849 40.95C255.214 40.5108 255.502 40.1667 255.697 39.9324C255.795 39.8156 255.87 39.7262 255.92 39.6658C255.945 39.6359 255.964 39.6128 255.977 39.5975C255.983 39.5899 255.988 39.5838 255.991 39.5799C255.993 39.578 255.994 39.576 255.995 39.575L255.996 39.574L258.207 36.9256L258.637 40.3484Z" fill="#C7E2FF" stroke="white" stroke-width="3"/>
<path d="M213.019 17.6736C220.524 17.6739 226.494 23.7879 226.494 31.1492C226.493 38.5104 220.524 44.6236 213.019 44.6238C205.648 44.6238 199.544 38.5206 199.543 31.1492C199.543 23.7877 205.514 17.6736 213.019 17.6736Z" fill="#375B9F" stroke="white" stroke-width="3"/>
<path d="M264.703 14.3778C265.524 14.2341 266.334 14.4764 266.667 14.5995L266.825 14.6639L266.965 14.7108L267.094 14.785C267.409 14.9651 267.762 15.2148 268.053 15.5946C268.354 15.9863 268.519 16.423 268.599 16.8759C268.741 17.6787 268.631 18.6889 268.451 19.8895L268.448 19.9159L268.443 19.9413C267.089 27.2246 263.153 34.5611 258.339 41.5087C253.517 48.4689 247.723 55.1652 242.546 61.1425C237.315 67.2258 232.579 72.6848 229.793 77.1854C229.483 79.6735 229.465 82.3822 229.753 85.3173L229.817 85.9208L229.821 85.9618L229.846 86.1981C229.919 86.7733 230.086 87.5065 230.262 88.1718C230.359 88.5384 230.453 88.8621 230.522 89.0936C230.556 89.2089 230.585 89.301 230.604 89.3632C230.614 89.3942 230.622 89.4182 230.626 89.4335C230.629 89.441 230.63 89.4466 230.631 89.4501L230.633 89.454L231.034 90.6991L229.855 91.2655L229.206 89.9139L229.854 91.2655L229.853 91.2665C229.852 91.2669 229.851 91.267 229.85 91.2675C229.848 91.2684 229.846 91.2701 229.843 91.2714C229.838 91.274 229.83 91.2771 229.822 91.2811C229.805 91.2892 229.781 91.2999 229.751 91.3134C229.692 91.3404 229.608 91.3782 229.5 91.4247C229.282 91.5179 228.967 91.6475 228.559 91.8007C227.742 92.1069 226.551 92.5082 225.015 92.9081C221.944 93.7078 217.496 94.4999 211.921 94.4999C206.368 94.4999 201.764 93.4788 198.537 92.4364C196.923 91.9152 195.647 91.387 194.763 90.9735C194.322 90.7673 193.971 90.5863 193.719 90.4452C193.596 90.3763 193.482 90.3078 193.386 90.245C193.343 90.2166 193.275 90.1703 193.205 90.1132C193.174 90.0882 193.102 90.029 193.025 89.9442C192.988 89.9032 192.916 89.8204 192.845 89.703C192.794 89.6171 192.629 89.3321 192.629 88.9257V88.6825L192.706 88.451C192.734 88.3656 192.79 88.1185 192.851 87.6532C192.909 87.2161 192.962 86.6664 193.011 86.0311C193.109 84.7616 193.186 83.2056 193.248 81.6298C193.346 79.0966 193.41 76.4463 193.463 75.0184C187.248 71.3047 174.074 63.046 163.167 41.9608L163.165 41.955C160.488 36.7243 158.478 31.2993 157.767 26.1493L157.702 25.6512L157.7 25.6288L157.697 25.6053C157.655 25.1439 157.353 23.2911 157.336 21.8134C157.328 21.0541 157.382 20.1616 157.661 19.3993C157.956 18.591 158.644 17.635 159.961 17.5526L160.127 17.5468C161.828 17.5186 163.064 18.7094 163.848 19.7548C164.698 20.8874 165.368 22.3118 165.87 23.5009C169.872 32.0924 175.464 37.7994 182.917 41.3202C190.427 44.867 199.945 46.2509 211.868 45.9452H211.869L212.98 45.9061C224.463 45.3901 235.773 41.429 244.695 36.038C253.978 30.4284 260.36 23.4698 261.938 17.5526C262.128 16.6869 262.443 15.9584 262.922 15.4022C263.439 14.8032 264.073 14.4881 264.703 14.3778Z" fill="#375B9F" stroke="white" stroke-width="3"/>
<path d="M212.894 71.025L212.4 70.6546C211.536 69.9139 203.141 64.3584 203.141 59.2967C203.141 55.2226 206.104 53.4943 208.944 53.4943C210.425 53.4943 211.906 54.1115 212.894 55.3461C213.882 54.235 215.363 53.4943 216.845 53.4943C219.684 53.4943 222.647 55.3461 222.647 59.2967C222.647 63.7411 214.252 69.9139 213.388 70.6546L212.894 71.025Z" fill="#F5C451"/>
<path d="M18.2188 126.416C24.6725 126.416 27.8994 129.987 27.8994 137.13C27.8994 137.639 27.8844 138.171 27.8545 138.725H9.95312C9.95312 144.894 13.2174 147.979 19.7461 147.979C22.4264 147.979 24.8073 147.604 26.8887 146.855V148.877C24.8073 149.626 22.4264 150 19.7461 150C11.6452 150 7.59473 145.979 7.59473 137.938C7.59473 130.257 11.1361 126.416 18.2188 126.416ZM9.95312 136.613H25.6309C25.541 131.133 23.0703 128.393 18.2188 128.393C12.9779 128.393 10.2227 131.133 9.95312 136.613ZM40.3203 138.208L31.1562 126.416H33.9639L41.7129 136.389L49.4619 126.416H52.2695L43.1279 138.208L52.2695 150H49.4619L41.7129 140.027L33.9639 150H31.1562L40.3203 138.208ZM59.0078 146.541C61.3887 147.35 63.5824 147.754 65.5889 147.754C71.6833 147.754 74.7305 144.362 74.7305 137.579C74.7305 131.545 71.6982 128.527 65.6338 128.527C63.5374 128.527 61.3288 128.707 59.0078 129.066V146.541ZM56.6494 127.382C59.3298 126.738 62.3395 126.416 65.6787 126.416C73.2406 126.416 77.0215 130.152 77.0215 137.624C77.0215 145.875 73.2181 150 65.6113 150C63.7246 150 61.5234 149.626 59.0078 148.877V158.535H56.6494V127.382ZM92.6094 126.416C99.0632 126.416 102.29 129.987 102.29 137.13C102.29 137.639 102.275 138.171 102.245 138.725H84.3438C84.3438 144.894 87.6081 147.979 94.1367 147.979C96.8171 147.979 99.1979 147.604 101.279 146.855V148.877C99.1979 149.626 96.8171 150 94.1367 150C86.0358 150 81.9854 145.979 81.9854 137.938C81.9854 130.257 85.5267 126.416 92.6094 126.416ZM84.3438 136.613H100.021C99.9316 131.133 97.4609 128.393 92.6094 128.393C87.3685 128.393 84.6133 131.133 84.3438 136.613ZM108.354 150V126.416H110.039L110.331 130.324C112.697 127.719 115.332 126.416 118.237 126.416V128.303C115.422 128.303 112.914 129.673 110.713 132.413V150H108.354ZM125.672 117.881V120.576H122.864V117.881H125.672ZM125.447 126.416V150H123.089V126.416H125.447ZM142.607 126.416C149.061 126.416 152.288 129.987 152.288 137.13C152.288 137.639 152.273 138.171 152.243 138.725H134.342C134.342 144.894 137.606 147.979 144.135 147.979C146.815 147.979 149.196 147.604 151.277 146.855V148.877C149.196 149.626 146.815 150 144.135 150C136.034 150 131.983 145.979 131.983 137.938C131.983 130.257 135.525 126.416 142.607 126.416ZM134.342 136.613H150.02C149.93 131.133 147.459 128.393 142.607 128.393C137.367 128.393 134.611 131.133 134.342 136.613ZM158.353 150V126.416H160.037L160.329 129.426C163.339 127.419 166.289 126.416 169.179 126.416C174.914 126.416 177.781 128.894 177.781 133.851V150H175.423V133.783C175.423 130.279 173.304 128.527 169.066 128.527C166.236 128.527 163.451 129.523 160.711 131.515V150H158.353ZM202.062 149.326C200.115 149.775 198.019 150 195.772 150C187.836 150 183.868 145.92 183.868 137.759C183.868 130.197 187.836 126.416 195.772 126.416C198.019 126.416 200.115 126.641 202.062 127.09V129.111C199.965 128.662 197.944 128.438 195.997 128.438C189.633 128.438 186.451 131.545 186.451 137.759C186.451 144.572 189.633 147.979 195.997 147.979C197.944 147.979 199.965 147.754 202.062 147.305V149.326ZM210.619 117.881V120.576H207.812V117.881H210.619ZM210.395 126.416V150H208.036V126.416H210.395ZM216.706 143.329C216.706 138.642 219.821 136.299 226.05 136.299C228.251 136.299 230.602 136.449 233.103 136.748V133.851C233.103 130.242 230.834 128.438 226.297 128.438C223.871 128.438 221.385 128.812 218.84 129.561V127.539C221.385 126.79 223.871 126.416 226.297 126.416C232.406 126.416 235.461 128.857 235.461 133.738V150H234.023L233.484 147.664C230.535 149.221 227.674 150 224.904 150C219.439 150 216.706 147.776 216.706 143.329ZM226.05 138.32C221.393 138.32 219.064 139.967 219.064 143.262C219.064 146.406 221.011 147.979 224.904 147.979C227.779 147.979 230.512 147.215 233.103 145.688V138.77C230.602 138.47 228.251 138.32 226.05 138.32ZM242.896 150V117.881H255.923C262.481 117.881 265.761 120.748 265.761 126.483C265.761 132.728 261.276 136.538 252.307 137.916L251.453 134.412C258.042 133.439 261.336 130.856 261.336 126.663C261.336 123.099 259.404 121.317 255.541 121.317H247.051V150H242.896ZM269.714 142.88C269.714 138.043 272.903 135.625 279.282 135.625C281.334 135.625 283.385 135.775 285.437 136.074V133.851C285.437 131.14 283.318 129.785 279.08 129.785C276.654 129.785 274.169 130.16 271.623 130.908V127.539C274.169 126.79 276.654 126.416 279.08 126.416C286.088 126.416 289.592 128.857 289.592 133.738V150H287.256L285.818 147.664C283.467 149.221 280.907 150 278.137 150C272.521 150 269.714 147.627 269.714 142.88ZM279.282 138.994C275.674 138.994 273.869 140.267 273.869 142.812C273.869 145.358 275.292 146.631 278.137 146.631C281.012 146.631 283.445 145.867 285.437 144.34V139.443C283.385 139.144 281.334 138.994 279.282 138.994ZM314.097 149.326C312.15 149.775 310.054 150 307.808 150C299.422 150 295.229 145.92 295.229 137.759C295.229 130.197 299.422 126.416 307.808 126.416C310.054 126.416 312.15 126.641 314.097 127.09V130.459C312.15 130.01 309.979 129.785 307.583 129.785C302.118 129.785 299.385 132.443 299.385 137.759C299.385 143.674 302.118 146.631 307.583 146.631C309.979 146.631 312.15 146.406 314.097 145.957V149.326ZM324.002 126.416V150H319.847V126.416H324.002ZM324.002 117.881V121.812H319.847V117.881H324.002ZM340.938 126.416C347.646 126.416 351 129.733 351 136.366C351 137.31 350.933 138.32 350.798 139.398H334.244C334.244 144.22 337.059 146.631 342.689 146.631C345.37 146.631 347.751 146.331 349.832 145.732V149.102C347.751 149.701 345.22 150 342.24 150C334.139 150 330.089 145.979 330.089 137.938C330.089 130.257 333.705 126.416 340.938 126.416ZM334.244 135.939H347.002C346.912 131.807 344.891 129.74 340.938 129.74C336.745 129.74 334.514 131.807 334.244 135.939ZM356.593 150V126.416H359.4L360.142 129.426C362.552 127.419 365.203 126.416 368.093 126.416C373.978 126.416 376.92 129.343 376.92 135.198V150H372.765V135.131C372.765 131.627 371.02 129.875 367.531 129.875C365.15 129.875 362.889 130.871 360.748 132.862V150H356.593ZM383.681 122.598H386.286L387.185 126.416H393.563V129.785H387.836V143.329C387.836 145.53 388.787 146.631 390.688 146.631H393.563V150H389.61C385.657 150 383.681 147.881 383.681 143.644V122.598ZM408.59 126.416C415.298 126.416 418.652 129.733 418.652 136.366C418.652 137.31 418.585 138.32 418.45 139.398H401.896C401.896 144.22 404.712 146.631 410.342 146.631C413.022 146.631 415.403 146.331 417.484 145.732V149.102C415.403 149.701 412.872 150 409.893 150C401.792 150 397.741 145.979 397.741 137.938C397.741 130.257 401.357 126.416 408.59 126.416ZM401.896 135.939H414.654C414.564 131.807 412.543 129.74 408.59 129.74C404.397 129.74 402.166 131.807 401.896 135.939Z" fill="#375B9F"/>
<path d="M61.6466 173.977V172.182H72.3409V173.977H68.0295V186H65.9513V173.977H61.6466ZM83.9701 172.182H86.0617V181.27C86.0617 182.237 85.8346 183.094 85.3803 183.841C84.9259 184.583 84.2872 185.168 83.4641 185.595C82.6409 186.018 81.6761 186.229 80.5695 186.229C79.4675 186.229 78.5049 186.018 77.6817 185.595C76.8586 185.168 76.2199 184.583 75.7655 183.841C75.3112 183.094 75.0841 182.237 75.0841 181.27V172.182H77.169V181.102C77.169 181.727 77.3061 182.282 77.5805 182.768C77.8594 183.254 78.253 183.636 78.7613 183.915C79.2696 184.19 79.8723 184.327 80.5695 184.327C81.2712 184.327 81.8762 184.19 82.3845 183.915C82.8973 183.636 83.2886 183.254 83.5585 182.768C83.8329 182.282 83.9701 181.727 83.9701 181.102V172.182ZM102.418 175.812C102.346 175.173 102.049 174.678 101.527 174.327C101.005 173.972 100.349 173.794 99.557 173.794C98.9902 173.794 98.4999 173.884 98.0861 174.064C97.6723 174.24 97.3507 174.483 97.1213 174.793C96.8963 175.099 96.7839 175.447 96.7839 175.839C96.7839 176.167 96.8604 176.451 97.0133 176.689C97.1707 176.927 97.3754 177.127 97.6273 177.289C97.8837 177.447 98.1581 177.58 98.4504 177.688C98.7428 177.791 99.0239 177.876 99.2938 177.944L100.643 178.295C101.084 178.403 101.536 178.549 101.999 178.733C102.463 178.918 102.892 179.161 103.288 179.462C103.684 179.763 104.003 180.137 104.246 180.582C104.494 181.027 104.617 181.56 104.617 182.181C104.617 182.964 104.415 183.659 104.01 184.266C103.61 184.873 103.027 185.352 102.263 185.703C101.502 186.054 100.583 186.229 99.503 186.229C98.4684 186.229 97.5733 186.065 96.8176 185.737C96.0619 185.408 95.4704 184.943 95.0431 184.34C94.6158 183.733 94.3797 183.013 94.3347 182.181H96.4263C96.4668 182.68 96.6287 183.096 96.9121 183.429C97.2 183.758 97.5666 184.003 98.0119 184.165C98.4617 184.322 98.9542 184.401 99.4895 184.401C100.079 184.401 100.603 184.309 101.062 184.124C101.525 183.935 101.889 183.674 102.155 183.342C102.42 183.004 102.553 182.611 102.553 182.161C102.553 181.752 102.436 181.416 102.202 181.156C101.972 180.895 101.66 180.679 101.264 180.508C100.873 180.337 100.43 180.186 99.9348 180.056L98.302 179.61C97.1955 179.309 96.3183 178.866 95.6706 178.281C95.0274 177.696 94.7058 176.923 94.7058 175.96C94.7058 175.164 94.9217 174.469 95.3535 173.875C95.7853 173.282 96.3701 172.821 97.1078 172.492C97.8454 172.159 98.6776 171.993 99.6042 171.993C100.54 171.993 101.365 172.157 102.08 172.485C102.8 172.814 103.367 173.266 103.781 173.842C104.195 174.413 104.41 175.07 104.428 175.812H102.418ZM108.545 186H106.332L111.304 172.182H113.713L118.686 186H116.473L112.566 174.692H112.458L108.545 186ZM108.916 180.589H116.095V182.343H108.916V180.589ZM121.061 186V172.182H123.146V184.205H129.407V186H121.061ZM141.052 172.182H143.143V181.27C143.143 182.237 142.916 183.094 142.462 183.841C142.008 184.583 141.369 185.168 140.546 185.595C139.723 186.018 138.758 186.229 137.651 186.229C136.549 186.229 135.587 186.018 134.763 185.595C133.94 185.168 133.301 184.583 132.847 183.841C132.393 183.094 132.166 182.237 132.166 181.27V172.182H134.251V181.102C134.251 181.727 134.388 182.282 134.662 182.768C134.941 183.254 135.335 183.636 135.843 183.915C136.351 184.19 136.954 184.327 137.651 184.327C138.353 184.327 138.958 184.19 139.466 183.915C139.979 183.636 140.37 183.254 140.64 182.768C140.915 182.282 141.052 181.727 141.052 181.102V172.182ZM151.028 186H146.555V172.182H151.17C152.524 172.182 153.686 172.458 154.658 173.012C155.629 173.56 156.374 174.35 156.891 175.38C157.413 176.406 157.674 177.636 157.674 179.071C157.674 180.51 157.411 181.747 156.884 182.782C156.363 183.816 155.607 184.612 154.617 185.17C153.628 185.723 152.431 186 151.028 186ZM148.639 184.178H150.913C151.966 184.178 152.841 183.98 153.538 183.585C154.235 183.184 154.757 182.606 155.103 181.85C155.45 181.09 155.623 180.164 155.623 179.071C155.623 177.987 155.45 177.067 155.103 176.311C154.761 175.555 154.251 174.982 153.572 174.591C152.892 174.199 152.049 174.004 151.041 174.004H148.639V184.178ZM162.237 184.111L162.136 184.846C162.068 185.386 161.954 185.948 161.792 186.533C161.634 187.122 161.47 187.669 161.299 188.173C161.133 188.676 160.996 189.077 160.888 189.374H159.457C159.516 189.095 159.597 188.717 159.7 188.24C159.804 187.768 159.905 187.239 160.004 186.654C160.103 186.07 160.177 185.474 160.226 184.866L160.294 184.111H162.237ZM170.814 186V172.182H179.383V173.977H172.899V178.187H178.769V179.975H172.899V186H170.814ZM191.212 172.182H193.304V181.27C193.304 182.237 193.077 183.094 192.623 183.841C192.168 184.583 191.53 185.168 190.706 185.595C189.883 186.018 188.918 186.229 187.812 186.229C186.71 186.229 185.747 186.018 184.924 185.595C184.101 185.168 183.462 184.583 183.008 183.841C182.554 183.094 182.326 182.237 182.326 181.27V172.182H184.411V181.102C184.411 181.727 184.549 182.282 184.823 182.768C185.102 183.254 185.495 183.636 186.004 183.915C186.512 184.19 187.115 184.327 187.812 184.327C188.514 184.327 189.119 184.19 189.627 183.915C190.14 183.636 190.531 183.254 190.801 182.768C191.075 182.282 191.212 181.727 191.212 181.102V172.182ZM196.715 186V172.182H205.379V173.977H198.8V178.187H204.927V179.975H198.8V184.205H205.46V186H196.715ZM208.544 186V172.182H213.469C214.539 172.182 215.428 172.366 216.134 172.735C216.845 173.104 217.376 173.614 217.726 174.267C218.077 174.914 218.253 175.663 218.253 176.513C218.253 177.359 218.075 178.104 217.72 178.747C217.369 179.386 216.838 179.883 216.127 180.238C215.421 180.593 214.533 180.771 213.462 180.771H209.731V178.976H213.273C213.948 178.976 214.497 178.879 214.92 178.686C215.347 178.493 215.66 178.212 215.857 177.843C216.055 177.474 216.154 177.031 216.154 176.513C216.154 175.992 216.053 175.54 215.851 175.157C215.653 174.775 215.34 174.483 214.913 174.28C214.49 174.073 213.934 173.97 213.246 173.97H210.628V186H208.544ZM215.365 179.766L218.779 186H216.404L213.057 179.766H215.365ZM222.337 186H220.124L225.096 172.182H227.505L232.478 186H230.265L226.358 174.692H226.25L222.337 186ZM222.708 180.589H229.887V182.343H222.708V180.589ZM244.735 186H240.262V172.182H244.877C246.231 172.182 247.393 172.458 248.365 173.012C249.337 173.56 250.081 174.35 250.598 175.38C251.12 176.406 251.381 177.636 251.381 179.071C251.381 180.51 251.118 181.747 250.592 182.782C250.07 183.816 249.314 184.612 248.324 185.17C247.335 185.723 246.138 186 244.735 186ZM242.346 184.178H244.62C245.673 184.178 246.548 183.98 247.245 183.585C247.942 183.184 248.464 182.606 248.81 181.85C249.157 181.09 249.33 180.164 249.33 179.071C249.33 177.987 249.157 177.067 248.81 176.311C248.468 175.555 247.958 174.982 247.279 174.591C246.599 174.199 245.756 174.004 244.748 174.004H242.346V184.178ZM254.354 186V172.182H263.017V173.977H256.438V178.187H262.565V179.975H256.438V184.205H263.098V186H254.354ZM266.182 186V172.182H268.267V184.205H274.528V186H266.182ZM294.172 176.675H292.067C291.986 176.226 291.835 175.83 291.614 175.488C291.394 175.146 291.124 174.856 290.805 174.618C290.485 174.379 290.128 174.199 289.732 174.078C289.341 173.956 288.925 173.896 288.484 173.896C287.688 173.896 286.975 174.096 286.345 174.496C285.72 174.896 285.225 175.483 284.861 176.257C284.501 177.031 284.321 177.975 284.321 179.091C284.321 180.215 284.501 181.165 284.861 181.938C285.225 182.712 285.722 183.297 286.352 183.692C286.981 184.088 287.69 184.286 288.477 184.286C288.913 184.286 289.327 184.228 289.719 184.111C290.114 183.989 290.472 183.812 290.791 183.578C291.111 183.344 291.381 183.058 291.601 182.721C291.826 182.379 291.981 181.988 292.067 181.547L294.172 181.554C294.059 182.233 293.841 182.858 293.517 183.429C293.198 183.996 292.786 184.486 292.282 184.9C291.783 185.31 291.212 185.627 290.569 185.852C289.925 186.076 289.224 186.189 288.464 186.189C287.267 186.189 286.201 185.906 285.265 185.339C284.33 184.768 283.592 183.951 283.052 182.89C282.517 181.828 282.249 180.562 282.249 179.091C282.249 177.616 282.519 176.349 283.059 175.292C283.599 174.231 284.337 173.417 285.272 172.85C286.208 172.279 287.272 171.993 288.464 171.993C289.197 171.993 289.88 172.099 290.515 172.31C291.153 172.517 291.727 172.823 292.235 173.228C292.743 173.628 293.164 174.118 293.497 174.699C293.83 175.274 294.055 175.933 294.172 176.675ZM299.131 172.182V186H297.046V172.182H299.131ZM302.547 186V172.182H307.473C308.543 172.182 309.432 172.366 310.138 172.735C310.849 173.104 311.38 173.614 311.73 174.267C312.081 174.914 312.257 175.663 312.257 176.513C312.257 177.359 312.079 178.104 311.724 178.747C311.373 179.386 310.842 179.883 310.131 180.238C309.425 180.593 308.537 180.771 307.466 180.771H303.735V178.976H307.277C307.952 178.976 308.501 178.879 308.924 178.686C309.351 178.493 309.663 178.212 309.861 177.843C310.059 177.474 310.158 177.031 310.158 176.513C310.158 175.992 310.057 175.54 309.855 175.157C309.657 174.775 309.344 174.483 308.917 174.28C308.494 174.073 307.938 173.97 307.25 173.97H304.632V186H302.547ZM309.369 179.766L312.783 186H310.408L307.061 179.766H309.369ZM326.651 176.675H324.545C324.464 176.226 324.314 175.83 324.093 175.488C323.873 175.146 323.603 174.856 323.284 174.618C322.964 174.379 322.607 174.199 322.211 174.078C321.82 173.956 321.403 173.896 320.963 173.896C320.166 173.896 319.454 174.096 318.824 174.496C318.199 174.896 317.704 175.483 317.339 176.257C316.98 177.031 316.8 177.975 316.8 179.091C316.8 180.215 316.98 181.165 317.339 181.938C317.704 182.712 318.201 183.297 318.831 183.692C319.46 184.088 320.169 184.286 320.956 184.286C321.392 184.286 321.806 184.228 322.197 184.111C322.593 183.989 322.951 183.812 323.27 183.578C323.59 183.344 323.859 183.058 324.08 182.721C324.305 182.379 324.46 181.988 324.545 181.547L326.651 181.554C326.538 182.233 326.32 182.858 325.996 183.429C325.677 183.996 325.265 184.486 324.761 184.9C324.262 185.31 323.691 185.627 323.048 185.852C322.404 186.076 321.703 186.189 320.942 186.189C319.746 186.189 318.68 185.906 317.744 185.339C316.809 184.768 316.071 183.951 315.531 182.89C314.996 181.828 314.728 180.562 314.728 179.091C314.728 177.616 314.998 176.349 315.538 175.292C316.078 174.231 316.815 173.417 317.751 172.85C318.687 172.279 319.75 171.993 320.942 171.993C321.676 171.993 322.359 172.099 322.994 172.31C323.632 172.517 324.206 172.823 324.714 173.228C325.222 173.628 325.643 174.118 325.976 174.699C326.309 175.274 326.534 175.933 326.651 176.675ZM338.411 172.182H340.503V181.27C340.503 182.237 340.276 183.094 339.821 183.841C339.367 184.583 338.728 185.168 337.905 185.595C337.082 186.018 336.117 186.229 335.011 186.229C333.909 186.229 332.946 186.018 332.123 185.595C331.3 185.168 330.661 184.583 330.207 183.841C329.752 183.094 329.525 182.237 329.525 181.27V172.182H331.61V181.102C331.61 181.727 331.747 182.282 332.022 182.768C332.301 183.254 332.694 183.636 333.202 183.915C333.711 184.19 334.313 184.327 335.011 184.327C335.712 184.327 336.317 184.19 336.826 183.915C337.338 183.636 337.73 183.254 338 182.768C338.274 182.282 338.411 181.727 338.411 181.102V172.182ZM343.914 186V172.182H345.999V184.205H352.26V186H343.914ZM366.484 179.091C366.484 180.566 366.214 181.835 365.674 182.896C365.134 183.953 364.394 184.768 363.454 185.339C362.519 185.906 361.455 186.189 360.263 186.189C359.066 186.189 357.998 185.906 357.058 185.339C356.122 184.768 355.385 183.951 354.845 182.89C354.305 181.828 354.035 180.562 354.035 179.091C354.035 177.616 354.305 176.349 354.845 175.292C355.385 174.231 356.122 173.417 357.058 172.85C357.998 172.279 359.066 171.993 360.263 171.993C361.455 171.993 362.519 172.279 363.454 172.85C364.394 173.417 365.134 174.231 365.674 175.292C366.214 176.349 366.484 177.616 366.484 179.091ZM364.419 179.091C364.419 177.966 364.237 177.02 363.873 176.25C363.513 175.477 363.018 174.892 362.388 174.496C361.763 174.096 361.055 173.896 360.263 173.896C359.467 173.896 358.756 174.096 358.131 174.496C357.506 174.892 357.011 175.477 356.646 176.25C356.287 177.02 356.107 177.966 356.107 179.091C356.107 180.215 356.287 181.165 356.646 181.938C357.011 182.707 357.506 183.292 358.131 183.692C358.756 184.088 359.467 184.286 360.263 184.286C361.055 184.286 361.763 184.088 362.388 183.692C363.018 183.292 363.513 182.707 363.873 181.938C364.237 181.165 364.419 180.215 364.419 179.091Z" fill="#6CBCFC"/>
</svg>
