<svg width="12" height="15" viewBox="0 0 12 15" fill="none" xmlns="http://www.w3.org/2000/svg">
<path d="M10.2857 9.83937H5.14286C4.90714 9.83937 4.71429 9.64761 4.71429 9.41323V2.59505C4.71429 2.36067 4.90714 2.16891 5.14286 2.16891H8.89554L10.7143 3.97733V9.41323C10.7143 9.64761 10.5214 9.83937 10.2857 9.83937ZM5.14286 11.1178H10.2857C11.2313 11.1178 12 10.3534 12 9.41323V3.97733C12 3.63908 11.8634 3.31415 11.6223 3.07445L9.80625 1.26604C9.56518 1.02633 9.23839 0.890503 8.89821 0.890503H5.14286C4.19732 0.890503 3.42857 1.65489 3.42857 2.59505V9.41323C3.42857 10.3534 4.19732 11.1178 5.14286 11.1178ZM1.71429 4.29959C0.76875 4.29959 0 5.06398 0 6.00414V12.8223C0 13.7625 0.76875 14.5269 1.71429 14.5269H6.85714C7.80268 14.5269 8.57143 13.7625 8.57143 12.8223V11.97H7.28571V12.8223C7.28571 13.0567 7.09286 13.2485 6.85714 13.2485H1.71429C1.47857 13.2485 1.28571 13.0567 1.28571 12.8223V6.00414C1.28571 5.76976 1.47857 5.578 1.71429 5.578H2.57143V4.29959H1.71429Z" fill="#458DFC"/>
</svg>
