<svg width="26" height="22" viewBox="0 0 26 22" fill="none" xmlns="http://www.w3.org/2000/svg">
<path d="M15.4544 0.138483C14.901 0.388918 14.5401 0.953625 14.5401 1.57235V4.71506H9.15005C4.4723 4.71506 0.680054 8.58453 0.680054 13.3575C0.680054 18.9211 4.60224 21.4058 5.50218 21.9067C5.62249 21.9754 5.75724 22 5.89199 22C6.41655 22 6.84005 21.563 6.84005 21.0326C6.84005 20.6643 6.63312 20.3255 6.36843 20.0751C5.91605 19.6381 5.30005 18.7787 5.30005 17.2859C5.30005 14.6834 7.36943 12.5719 9.92005 12.5719H14.5401V15.7146C14.5401 16.3333 14.8962 16.898 15.4544 17.1484C16.0127 17.3989 16.6576 17.2957 17.1099 16.8833L24.8099 9.81216C25.1324 9.51262 25.3201 9.09031 25.3201 8.64346C25.3201 8.1966 25.1372 7.7743 24.8099 7.47476L17.1099 0.40365C16.6576 -0.0137422 16.0079 -0.116863 15.4544 0.138483Z" fill="#375B9F"/>
</svg>
