<svg width="19" height="24" viewBox="0 0 19 24" fill="none" xmlns="http://www.w3.org/2000/svg">
<path d="M3.5 0.300049C1.84531 0.300049 0.5 1.61173 0.5 3.22505V20.7751C0.5 22.3884 1.84531 23.7001 3.5 23.7001H15.5C17.1547 23.7001 18.5 22.3884 18.5 20.7751V7.61255H12.5C11.6703 7.61255 11 6.95899 11 6.15005V0.300049H3.5ZM12.5 0.300049V6.15005H18.5L12.5 0.300049ZM10.625 10.9032V15.5695L12.0781 14.1527C12.5188 13.7231 13.2312 13.7231 13.6672 14.1527C14.1031 14.5823 14.1078 15.277 13.6672 15.702L10.2922 18.9926C9.85156 19.4222 9.13906 19.4222 8.70312 18.9926L5.32812 15.702C4.8875 15.2724 4.8875 14.5777 5.32812 14.1527C5.76875 13.7276 6.48125 13.7231 6.91719 14.1527L8.37031 15.5695V10.9032C8.37031 10.2953 8.87187 9.8063 9.49531 9.8063C10.1187 9.8063 10.6203 10.2953 10.6203 10.9032H10.625Z" fill="#375B9F"/>
</svg>
