<svg width="18" height="19" viewBox="0 0 18 19" fill="none" xmlns="http://www.w3.org/2000/svg">
<path d="M9 18.7087C11.3869 18.7087 13.6761 17.7605 15.364 16.0727C17.0518 14.3849 18 12.0957 18 9.70874C18 7.32179 17.0518 5.03261 15.364 3.34478C13.6761 1.65695 11.3869 0.70874 9 0.70874C6.61305 0.70874 4.32387 1.65695 2.63604 3.34478C0.948212 5.03261 0 7.32179 0 9.70874C0 12.0957 0.948212 14.3849 2.63604 16.0727C4.32387 17.7605 6.61305 18.7087 9 18.7087ZM7.59375 12.5212H8.4375V10.2712H7.59375C7.12617 10.2712 6.75 9.89507 6.75 9.42749C6.75 8.95991 7.12617 8.58374 7.59375 8.58374H9.28125C9.74883 8.58374 10.125 8.95991 10.125 9.42749V12.5212H10.4062C10.8738 12.5212 11.25 12.8974 11.25 13.365C11.25 13.8326 10.8738 14.2087 10.4062 14.2087H7.59375C7.12617 14.2087 6.75 13.8326 6.75 13.365C6.75 12.8974 7.12617 12.5212 7.59375 12.5212ZM9 5.20874C9.29837 5.20874 9.58452 5.32727 9.7955 5.53825C10.0065 5.74922 10.125 6.03537 10.125 6.33374C10.125 6.63211 10.0065 6.91826 9.7955 7.12924C9.58452 7.34021 9.29837 7.45874 9 7.45874C8.70163 7.45874 8.41548 7.34021 8.2045 7.12924C7.99353 6.91826 7.875 6.63211 7.875 6.33374C7.875 6.03537 7.99353 5.74922 8.2045 5.53825C8.41548 5.32727 8.70163 5.20874 9 5.20874Z" fill="#A0A3B1"/>
</svg>
